<svg width="24" height="24" viewBox="0 0 24 24" fill="none" xmlns="http://www.w3.org/2000/svg">
<g clip-path="url(#clip0)">
<path d="M23.9765 16.9439C23.9203 18.2191 23.714 19.0958 23.4186 19.8555C23.1139 20.6619 22.645 21.3838 22.0308 21.984C21.4306 22.5935 20.7039 23.0671 19.9069 23.3671C19.1428 23.6625 18.2707 23.8687 16.9955 23.9249C15.7108 23.9859 15.3029 24 12.0445 24C8.78601 24 8.37815 23.9859 7.09818 23.9297C5.82297 23.8734 4.94627 23.667 4.18678 23.3718C3.38023 23.0671 2.65829 22.5982 2.05813 21.984C1.44864 21.3838 0.975219 20.6571 0.67505 19.8601C0.379644 19.0958 0.173427 18.2239 0.117202 16.9487C0.0562161 15.664 0.0421143 15.2561 0.0421143 11.9977C0.0421143 8.73921 0.0562161 8.33135 0.11244 7.05138C0.168665 5.77617 0.375065 4.89947 0.670472 4.1398C0.975219 3.33343 1.44864 2.61149 2.05813 2.01133C2.65829 1.40184 3.38499 0.928236 4.18202 0.62825C4.94627 0.332844 5.81821 0.126625 7.0936 0.0704021C8.37339 0.0139942 8.78143 7.43866e-05 12.0399 7.43866e-05C15.2983 7.43866e-05 15.7062 0.0139942 16.9862 0.0704021C18.2614 0.126625 19.1381 0.332844 19.8976 0.62825C21.5105 1.25185 22.7857 2.52706 23.4093 4.1398C23.7045 4.90405 23.9109 5.77617 23.9671 7.05138C24.0234 8.33135 24.0375 8.73921 24.0375 11.9977C24.0375 15.2561 24.0327 15.664 23.9765 16.9439ZM21.8152 7.14515C21.7636 5.97304 21.5667 5.34011 21.4026 4.91815C20.9993 3.8726 20.1695 3.04278 19.124 2.63951C18.702 2.47541 18.0645 2.27854 16.897 2.22707C15.6311 2.17067 15.2514 2.15675 12.0492 2.15675C8.847 2.15675 8.46258 2.17067 7.20129 2.22707C6.02918 2.27854 5.39625 2.47541 4.97429 2.63951C4.45399 2.8318 3.98038 3.13655 3.59597 3.53507C3.19745 3.92424 2.89271 4.39308 2.70041 4.91339C2.53631 5.33535 2.33944 5.97304 2.28798 7.14038C2.23157 8.40626 2.21765 8.78609 2.21765 11.9883C2.21765 15.1905 2.23157 15.575 2.28798 16.8361C2.33944 18.0082 2.53631 18.6411 2.70041 19.0631C2.89271 19.5835 3.19745 20.057 3.60073 20.4416C3.98972 20.8401 4.45857 21.1448 4.97905 21.3369C5.40101 21.501 6.03871 21.6979 7.20605 21.7496C8.47192 21.8058 8.85176 21.8199 12.0538 21.8199C15.2608 21.8199 15.6404 21.8058 16.9017 21.7496C18.0738 21.6979 18.7068 21.501 19.1287 21.3369C19.649 21.1448 20.1226 20.8401 20.507 20.4416C20.9056 20.0524 21.2103 19.5835 21.4026 19.0631C21.5667 18.6411 21.7636 18.0036 21.8152 16.8361C21.8715 15.5702 21.8856 15.1905 21.8856 11.9883C21.8856 8.78609 21.8715 8.41102 21.8152 7.14515Z" fill="#EDEFF3"/>
<path d="M12.0445 18.1631C8.64086 18.1631 5.87927 15.4017 5.87927 11.9978C5.87927 8.59396 8.64086 5.83255 12.0445 5.83255C15.4484 5.83255 18.2098 8.59396 18.2098 11.9978C18.2098 15.4017 15.4484 18.1631 12.0445 18.1631ZM12.0445 7.99856C9.83641 7.99856 8.04528 9.7895 8.04528 11.9978C8.04528 14.2061 9.83641 15.9971 12.0445 15.9971C14.2529 15.9971 16.0438 14.2061 16.0438 11.9978C16.0438 9.7895 14.2529 7.99856 12.0445 7.99856Z" fill="#EDEFF3"/>
<path d="M19.8931 18.4064C19.8931 17.6116 19.2486 16.9671 18.4536 16.9671C17.6588 16.9671 17.0143 17.6116 17.0143 18.4064C17.0143 19.2014 17.6588 19.8457 18.4536 19.8457C19.2486 19.8457 19.8931 19.2014 19.8931 18.4064Z" fill="#EDEFF3"/>
</g>
<defs>
<clipPath id="clip0">
<rect width="24" height="24" fill="white" transform="matrix(1 0 0 -1 0 24)"/>
</clipPath>
</defs>
</svg>
