<svg width="24" height="24" viewBox="0 0 24 24" fill="none" xmlns="http://www.w3.org/2000/svg">
<g clip-path="url(#clip0)">
<path d="M23.994 23.9997V23.9987H24V15.1967C24 10.8907 23.073 7.57373 18.039 7.57373C15.619 7.57373 13.995 8.90173 13.332 10.1607H13.262V7.97573H8.48901V23.9987H13.459V16.0647C13.459 13.9757 13.855 11.9557 16.442 11.9557C18.991 11.9557 19.029 14.3397 19.029 16.1987V23.9997H23.994Z" fill="#EDEFF3"/>
<path d="M0.395996 7.97705H5.372V24H0.395996V7.97705Z" fill="#EDEFF3"/>
<path d="M2.882 0C1.291 0 0 1.291 0 2.882C0 4.473 1.291 5.791 2.882 5.791C4.473 5.791 5.764 4.473 5.764 2.882C5.763 1.291 4.472 0 2.882 0V0Z" fill="#EDEFF3"/>
</g>
<defs>
<clipPath id="clip0">
<rect width="24" height="24" fill="white"/>
</clipPath>
</defs>
</svg>
